<?xml version="1.0" encoding="UTF-8"?>
<svg width="121px" height="47px" viewBox="0 0 121 47" version="1.1" xmlns="http://www.w3.org/2000/svg" xmlns:xlink="http://www.w3.org/1999/xlink">
    <!-- Generator: sketchtool 59.1 (101010) - https://sketch.com -->
    <title>0C6F022F-69B7-4425-A584-34AF8D8C65FD</title>
    <desc>Created with sketchtool.</desc>
    <g id="Asset-Artboard-Page" stroke="none" stroke-width="1" fill="none" fill-rule="evenodd">
        <g id="logo/NRI-PEOPLE-logo/NRI-PEOPLE/negative" fill="#FFFFFF">
            <g id="logo/NRI-PEOPLE">
                <g id="Group">
                    <polygon id="Fill-1" points="13.6332708 0 13.6332708 0.665528612 16.9198629 0.665528612 16.9198629 19.7849108 4.04737728 0 0 0 0 0.665528612 3.04314081 0.665528612 3.04314081 20.510942 0 20.510942 0 21.1764706 7.06008668 21.1764706 7.06008668 20.510942 3.7734946 20.510942 3.7734946 0.816785115 17.0117207 21.1764706 17.6502167 21.1764706 17.6502167 0.665528612 20.5716319 0.665528612 20.5716319 0"></polygon>
                    <path d="M35.0647507,10.9817823 C37.7359058,10.9817823 38.994726,9.74147898 38.994726,7.10961584 L38.994726,4.53825529 C38.994726,1.90639214 37.7359058,0.665528612 35.0647507,0.665528612 L26.8977708,0.665528612 L26.8977708,10.9817823 L35.0647507,10.9817823 Z M42.4027514,21.1764706 L38.994726,21.1764706 L34.0515539,11.6473109 L26.8977708,11.6473109 L26.8977708,20.510942 L30.2136874,20.510942 L30.2136874,21.1764706 L23.0906072,21.1764706 L23.0906072,20.510942 L26.1609004,20.510942 L26.1609004,0.665528612 L23.0906072,0.665528612 L23.0906072,0 L35.0647507,0 C38.2271527,0 39.7315963,1.48231373 39.7315963,4.59875789 L39.7315963,7.04911324 C39.7315963,10.1649972 38.2271527,11.6473109 35.0647507,11.6473109 L34.8191272,11.6473109 L39.45527,20.510942 L42.4027514,20.510942 L42.4027514,21.1764706 Z" id="Fill-2"></path>
                    <polygon id="Fill-5" points="48.6520126 20.510942 52.0588235 20.510942 52.0588235 21.1764706 44.5018975 21.1764706 44.5018975 20.510942 47.9087084 20.510942 47.9087084 0.665528612 44.5018975 0.665528612 44.5018975 0 52.0588235 0 52.0588235 0.665528612 48.6520126 0.665528612"></polygon>
                </g>
                <g id="Group-19" transform="translate(52.058824, 10.588235)">
                    <path d="M11.5221748,16.20493 C11.3173271,16.20493 10.9303924,15.9584314 10.7261137,15.6895238 C7.72167972,18.7365826 4.9681843,21.8284594 1.2814935,26.1752381 C1.12216745,26.3763585 0.94008055,26.5561905 0.804084393,26.5561905 C0.371058971,26.5561905 0.0302150458,25.7718768 0.0302150458,25.1892437 C0.0302150458,24.9651541 0.0757367721,24.8307003 0.166211203,24.6962465 C6.24279264,17.7505882 10.7710664,12.642465 19.7149475,4.912493 C19.7832301,4.84526611 19.9875089,4.68840336 20.1018822,4.68840336 C20.3977734,4.68840336 20.7841391,5.1589916 20.7841391,5.62957983 C20.7841391,5.87607843 20.7164255,6.0777591 20.5110087,6.25647059 C17.14297,9.43854342 14.480518,11.9472269 12.0456747,14.3898039 C17.5077128,12.7769188 26.7469162,8.96795518 26.7469162,4.44190476 C26.7469162,2.85086835 25.2219384,1.79820728 22.9236602,1.79820728 C18.5541435,1.79820728 13.661696,3.59036415 10.2708964,5.76347339 C10.2026138,5.80829132 9.92948345,5.98812325 9.92948345,6.05535014 C9.92948345,6.12257703 10.0882405,6.25647059 10.0882405,6.43630252 C10.0882405,6.52593838 10.0205269,6.66039216 9.81511011,6.79428571 C8.70039684,7.55619048 7.06218371,8.18364146 6.515923,8.18364146 C6.01518401,8.18364146 5.85585797,7.73546218 5.85585797,7.53378151 C5.85585797,5.1589916 15.4592351,0.296806723 22.6050081,0.296806723 C25.9730469,0.296806723 28.4078902,1.79820728 28.4078902,4.12817927 C28.4078902,10.9623529 12.9561092,16.20493 11.5221748,16.20493" id="Fill-7"></path>
                    <path d="M21.9243445,19.4311485 C21.1738051,19.4311485 19.3984577,20.5958543 18.5563058,21.8283473 C20.1495662,21.8283473 22.3568009,20.5510364 22.3568009,19.8345098 C22.3568009,19.6322689 22.2429966,19.4311485 21.9243445,19.4311485 M18.2376537,25.4132213 C17.031897,25.4132213 16.1442233,24.5616807 16.1442233,23.5980952 C16.1442233,20.9997759 19.9902402,18.1762465 22.4933661,18.1762465 C23.176192,18.1762465 23.676931,18.5571989 23.676931,19.3191036 C23.676931,21.1784874 20.9234356,22.7695238 18.1010885,22.8143417 C18.0783277,22.9258263 18.0783277,23.0154622 18.0783277,23.0832493 C18.0783277,23.7779272 18.3742189,24.0238655 19.0115231,24.0238655 C21.7650185,24.0238655 25.3834267,20.9997759 25.8614048,20.5958543 C26.0207309,20.4619608 26.0890134,20.4395518 26.157296,20.4395518 C26.4304264,20.4395518 26.7946002,20.819944 26.7946002,21.1336695 C26.7946002,21.2008964 26.7718393,21.3129412 26.6125133,21.4479552 C26.1345352,21.8507563 21.9015837,25.4132213 18.2376537,25.4132213" id="Fill-9"></path>
                    <path d="M30.2543083,21.1336695 C30.2543083,20.3723249 30.641243,19.7672829 31.1875037,19.587451 C31.0054168,19.4983754 30.7778082,19.4311485 30.4819169,19.4311485 C29.7308085,19.4311485 28.6838087,19.8345098 27.6373781,20.5958543 C26.7041827,21.2681232 25.9303133,22.2765266 25.9303133,23.0602801 C25.9303133,23.6658824 26.3855306,24.0238655 26.977313,24.0238655 C27.5918563,24.0238655 28.4334393,23.7107003 29.5259607,22.9930532 C29.8901345,22.7022969 30.2543083,22.4333894 30.4819169,22.1868908 C30.3225909,21.8955742 30.2543083,21.5370308 30.2543083,21.1336695 M26.3855306,25.5476751 C25.0204478,25.5476751 24.3376219,24.8311485 24.3376219,23.4412325 C24.3376219,20.932549 28.2974431,17.9521569 30.9371342,17.9521569 C32.3249778,17.9521569 32.8257168,18.6916527 32.8257168,19.6546779 C32.8257168,20.2373109 32.6436299,20.819944 32.3249778,21.4479552 C32.4843039,21.5146218 32.6436299,21.5370308 32.8484777,21.5370308 C33.622347,21.5370308 34.3051729,21.1336695 34.9424771,20.5958543 C35.1018031,20.4619608 35.1700857,20.4395518 35.2377993,20.4395518 C35.5109296,20.4395518 35.8751035,20.819944 35.8751035,21.1336695 C35.8751035,21.2008964 35.8523426,21.3129412 35.6935856,21.4479552 C34.7376293,22.2541176 33.6678688,23.1280672 32.4160213,23.1280672 C31.9841339,23.1280672 31.6421519,23.0602801 31.3690216,22.9258263 C30.0494605,24.4272269 28.0925953,25.5476751 26.3855306,25.5476751" id="Fill-11"></path>
                    <path d="M40.8148367,19.632437 C39.8133587,19.632437 38.4255151,20.5960224 36.7184503,22.1646499 C36.5818852,22.4778151 36.5136026,22.7696919 36.5136026,23.0156303 C36.5136026,23.6430812 36.9005372,24.1808964 37.6971675,24.1808964 C38.5620803,24.1808964 39.6312718,23.4638095 40.1547717,23.0156303 C40.6555106,22.6122689 41.7025103,21.5142297 41.7025103,20.5960224 C41.7025103,20.1030252 41.3838583,19.632437 40.8148367,19.632437 M23.0642085,33.9271148 C27.1150732,29.5360784 31.5301116,25.4128291 35.2623241,21.5814566 C35.0574764,21.492381 34.7615851,21.2234734 34.7615851,20.9097479 C34.7615851,20.7977031 34.784346,20.7304762 34.943672,20.5960224 C35.4210811,20.1926611 37.9247761,17.9747339 39.7905978,16.0257143 C39.8588804,15.9579272 39.927163,15.9131092 40.0187755,15.9131092 C40.3140977,15.9131092 40.6099889,16.2716527 40.6099889,16.6755742 C40.6099889,16.8094678 40.5872281,16.9887395 40.4506629,17.1685714 C39.7905978,18.0195518 39.1993844,18.6912605 38.6303628,19.3864986 C39.6312718,18.6912605 40.8148367,18.2206723 41.7935538,18.2206723 C42.8860752,18.2206723 43.4323359,19.2514846 43.4323359,19.9691317 C43.4323359,21.2010644 42.3853362,22.6794958 41.0418763,23.7327171 C43.0220714,23.0604482 44.6380927,21.9405602 46.2313531,20.5960224 C46.3901101,20.4615686 46.4356318,20.4391597 46.5266753,20.4391597 C46.8003747,20.4391597 47.1639795,20.820112 47.1639795,21.1338375 C47.1639795,21.2010644 47.1412186,21.3131092 46.9818926,21.447563 C44.1145928,23.8677311 40.5872281,25.5478431 37.3785154,25.5478431 C36.2632331,25.5478431 35.1940415,25.0772549 35.1940415,23.6430812 C34.7388243,24.1584874 34.2153244,24.6738936 33.7145854,25.2117087 C31.0066117,28.1691317 27.0467906,32.0447619 23.7697953,35.092381 C23.5877084,35.2268347 23.4739041,35.2940616 23.3373389,35.2940616 C23.0414477,35.2940616 22.8593608,34.912549 22.8593608,34.5321569 C22.8593608,34.3304762 22.9276434,34.0839776 23.0642085,33.9271148" id="Fill-13"></path>
                    <path d="M56.4051744,10.5807843 C53.5151138,13.3146779 51.2390275,15.7785434 49.6463361,17.9522129 C52.991614,15.2636975 56.2230875,12.4177591 59.4312312,9.48330532 C62.458426,6.70459384 64.5063346,4.68834734 65.3484866,3.5454902 C65.4622909,3.38862745 65.5305735,3.29955182 65.5305735,3.23232493 C65.5305735,3.16509804 65.4850517,3.14268908 65.4167691,3.14268908 C65.3029648,3.14268908 65.1663996,3.187507 64.9615519,3.29955182 C64.2332043,3.6805042 61.2754301,5.9432493 56.4051744,10.5807843 M59.9774919,10.5359664 C56.1548049,13.9639776 52.2177446,17.3023529 47.9620322,20.6183193 C47.66671,21.3354062 47.4840541,21.9628571 47.4840541,22.4334454 C47.4840541,22.8816246 47.66671,23.5085154 48.2806843,23.5085154 C50.488488,23.5085154 53.4013095,20.977423 53.8792876,20.5735014 C54.0158528,20.4620168 54.0835664,20.4396078 54.151849,20.4396078 C54.4255483,20.4396078 54.7891531,20.82 54.7891531,21.1337255 C54.7891531,21.2009524 54.7663923,21.3129972 54.6070662,21.447451 C54.1290881,21.8508123 50.1692669,25.3908683 47.3019672,25.3908683 C46.1644931,25.3908683 45.5271889,24.3606162 45.5271889,23.284986 C45.5271889,19.3415686 50.7610494,13.8967507 55.2443704,9.50571429 C60.4782309,4.39703081 65.6671386,0.902352941 67.1915474,0.902352941 C67.5101995,0.902352941 67.6461957,1.17070028 67.6461957,1.5292437 C67.6461957,3.36621849 64.1882516,6.77182073 59.9774919,10.5359664" id="Fill-15"></path>
                    <path d="M57.884915,19.4311485 C57.1343756,19.4311485 55.3590282,20.5958543 54.5168763,21.8283473 C56.1101367,21.8283473 58.3173714,20.5510364 58.3173714,19.8345098 C58.3173714,19.6322689 58.2041361,19.4311485 57.884915,19.4311485 M54.3803111,25.4132213 C52.9918985,25.4132213 52.1047938,24.5616807 52.1047938,23.5980952 C52.1047938,20.9997759 55.9508107,18.1762465 58.4539366,18.1762465 C59.1367625,18.1762465 59.6375015,18.5571989 59.6375015,19.3191036 C59.6375015,21.1784874 56.9517196,22.7695238 54.061659,22.8143417 C54.0388982,22.9258263 54.0388982,23.0154622 54.0388982,23.0832493 C54.0388982,23.7779272 54.3353584,24.0238655 54.9720936,24.0238655 C56.2922236,24.0238655 57.6578754,23.0832493 58.1125236,22.7022969 C58.1813753,22.63507 58.2496578,22.6126611 58.3401323,22.6126611 C58.6360235,22.6126611 58.9774364,22.9930532 58.9774364,23.28493 C58.9774364,23.3969748 58.9319147,23.4636415 58.8636321,23.5308683 C57.9531976,24.3605602 56.5425931,25.4132213 54.3803111,25.4132213" id="Fill-17"></path>
                </g>
            </g>
        </g>
    </g>
</svg>