<?xml version="1.0" encoding="UTF-8"?>
<svg width="140px" height="26px" viewBox="0 0 140 26" version="1.1" xmlns="http://www.w3.org/2000/svg" xmlns:xlink="http://www.w3.org/1999/xlink">
    <!-- Generator: sketchtool 59.1 (101010) - https://sketch.com -->
    <title>E39649AF-B101-4F30-A852-4587D8DFAC63</title>
    <desc>Created with sketchtool.</desc>
    <g id="Asset-Artboard-Page" stroke="none" stroke-width="1" fill="none" fill-rule="evenodd">
        <g id="logo/NRIJOURNAL/positive-logo/NRIJOURNAL/negative" fill="#FFFFFF">
            <path d="M0,0.205492007 L3.40341091,0.205492007 L8.75162806,14.8981707 L8.82108542,14.8981707 L8.82108542,0.205492007 L12.3634111,0.205492007 L12.3634111,24.5905438 L9.02945752,24.5905438 L3.61178301,9.93211378 L3.54232564,9.93211378 L3.54232564,24.5905438 L0,24.5905438 L0,0.205492007 Z M19.1007756,11.0965683 L21.1150392,11.0965683 C21.7401586,11.0965683 22.2379314,11.0109475 22.6083725,10.8397033 C22.9788137,10.6684591 23.2624284,10.4230128 23.4592252,10.103357 C23.6560221,9.78370113 23.7891474,9.38984539 23.8586051,8.92177792 C23.9280628,8.45371045 23.9627911,7.91144529 23.9627911,7.29496619 C23.9627911,6.67848708 23.9280628,6.13622192 23.8586051,5.66815445 C23.7891474,5.20008698 23.644446,4.80052318 23.4244966,4.46945107 C23.2045471,4.13837896 22.8977802,3.89293262 22.5041865,3.73310471 C22.1105928,3.57327679 21.5896677,3.49336403 20.9413958,3.49336403 L19.1007756,3.49336403 L19.1007756,11.0965683 Z M15.5584501,0.205492007 L21.2539539,0.205492007 C25.4214166,0.205492007 27.5051167,2.5914587 27.5051167,7.36346366 C27.5051167,8.77908236 27.2793825,9.99489792 26.8279074,11.0109468 C26.3764322,12.0269957 25.5834686,12.8432475 24.4489926,13.4597266 L28.2691477,24.5905438 L24.51845,24.5905438 L21.2192252,14.1789486 L19.1007756,14.1789486 L19.1007756,24.5905438 L15.5584501,24.5905438 L15.5584501,0.205492007 Z M30.4570534,0.205492007 L33.9993789,0.205492007 L33.9993789,24.5905438 L30.4570534,24.5905438 L30.4570534,0.205492007 Z M52.1277525,18.8367671 C52.1277525,19.6359066 51.9888392,20.3950778 51.7110083,21.1143034 C51.4331775,21.833529 51.0338016,22.4671231 50.5128687,23.0151045 C49.9919359,23.5630859 49.3610378,23.996898 48.6201555,24.3165538 C47.8792732,24.6362097 47.034217,24.7960352 46.0849616,24.7960352 C44.9504856,24.7960352 44.0070325,24.5505888 43.2545739,24.0596888 C42.5021153,23.5687888 41.9059456,23.0836042 41.4660467,22.6041205 L44.2443414,20.4122058 C44.4990197,20.6633639 44.7942105,20.8745619 45.1299228,21.0458061 C45.4656351,21.2170503 45.8187065,21.3026711 46.1891477,21.3026711 C46.3975208,21.3026711 46.6406192,21.2627147 46.91845,21.1828008 C47.1962809,21.1028868 47.4567434,20.9544774 47.6998454,20.7375681 C47.9429474,20.5206588 48.1513174,20.22384 48.3249617,19.8471027 C48.498606,19.4703655 48.5854268,18.9737648 48.5854268,18.3572857 L48.5854268,0.205492007 L52.1277525,0.205492007 L52.1277525,18.8367671 Z M55.253332,5.95926798 C55.253332,4.97746796 55.4269737,4.10984375 55.7742622,3.35636932 C56.1215508,2.60289489 56.5788072,1.980717 57.1460452,1.48981699 C57.7132832,0.998916986 58.3499693,0.627893476 59.0561228,0.376735332 C59.7622762,0.125577188 60.4742071,-5.7035489e-14 61.1919368,-5.7035489e-14 C61.9096665,-5.7035489e-14 62.6215973,0.125577188 63.3277508,0.376735332 C64.0339042,0.627893476 64.6705903,0.998916986 65.2378283,1.48981699 C65.8050663,1.980717 66.2623227,2.60289489 66.6096113,3.35636932 C66.9568999,4.10984375 67.1305415,4.97746796 67.1305415,5.95926798 L67.1305415,18.8367666 C67.1305415,19.8413992 66.9568999,20.7147314 66.6096113,21.4567896 C66.2623227,22.1988477 65.8050663,22.8153176 65.2378283,23.3062176 C64.6705903,23.7971176 64.0339042,24.1681411 63.3277508,24.4192992 C62.6215973,24.6704574 61.9096665,24.7960346 61.1919368,24.7960346 C60.4742071,24.7960346 59.7622762,24.6704574 59.0561228,24.4192992 C58.3499693,24.1681411 57.7132832,23.7971176 57.1460452,23.3062176 C56.5788072,22.8153176 56.1215508,22.1988477 55.7742622,21.4567896 C55.4269737,20.7147314 55.253332,19.8413992 55.253332,18.8367666 L55.253332,5.95926798 Z M58.7956575,18.8367666 C58.7956575,19.6815712 59.0329678,20.3037491 59.5075955,20.7033189 C59.9822231,21.1028886 60.5436645,21.3026705 61.1919365,21.3026705 C61.8402085,21.3026705 62.4016499,21.1028886 62.8762775,20.7033189 C63.3509052,20.3037491 63.5882155,19.6815712 63.5882155,18.8367666 L63.5882155,5.95926801 C63.5882155,5.11446335 63.3509052,4.49228546 62.8762775,4.09271569 C62.4016499,3.69314592 61.8402085,3.49336403 61.1919365,3.49336403 C60.5436645,3.49336403 59.9822231,3.69314592 59.5075955,4.09271569 C59.0329678,4.49228546 58.7956575,5.11446335 58.7956575,5.95926801 L58.7956575,18.8367666 Z M81.7165897,19.1107564 C81.7165897,19.909896 81.5661002,20.651943 81.2651168,21.3369198 C80.9641334,22.0218965 80.5531814,22.6212422 80.0322485,23.1349748 C79.5113157,23.6487074 78.9035698,24.0539792 78.2089926,24.3508025 C77.5144155,24.6476258 76.7735443,24.7960352 75.9863569,24.7960352 C75.1991695,24.7960352 74.4582983,24.6476258 73.7637211,24.3508025 C73.069144,24.0539792 72.4613981,23.6487074 71.9404652,23.1349748 C71.4195324,22.6212422 71.0085804,22.0218965 70.707597,21.3369198 C70.4066136,20.651943 70.2561241,19.909896 70.2561241,19.1107564 L70.2561241,0.205492007 L73.7984498,0.205492007 L73.7984498,18.7682697 C73.7984498,19.635907 74.0068198,20.275209 74.4235661,20.6861951 C74.8403124,21.0971812 75.3612375,21.3026711 75.9863569,21.3026711 C76.6114763,21.3026711 77.1324014,21.0971812 77.5491476,20.6861951 C77.9658939,20.275209 78.1742639,19.635907 78.1742639,18.7682697 L78.1742639,0.205492007 L81.7165897,0.205492007 L81.7165897,19.1107564 Z M88.5928723,11.0965683 L90.6071359,11.0965683 C91.2322553,11.0965683 91.7300281,11.0109475 92.1004692,10.8397033 C92.4709104,10.6684591 92.7545251,10.4230128 92.951322,10.103357 C93.1481188,9.78370113 93.2812441,9.38984539 93.3507018,8.92177792 C93.4201595,8.45371045 93.4548878,7.91144529 93.4548878,7.29496619 C93.4548878,6.67848708 93.4201595,6.13622192 93.3507018,5.66815445 C93.2812441,5.20008698 93.1365427,4.80052318 92.9165933,4.46945107 C92.6966439,4.13837896 92.3898769,3.89293262 91.9962832,3.73310471 C91.6026895,3.57327679 91.0817645,3.49336403 90.4334925,3.49336403 L88.5928723,3.49336403 L88.5928723,11.0965683 Z M85.0505385,0.205492007 L90.7460424,0.205492007 C94.913505,0.205492007 96.9972051,2.5914587 96.9972051,7.36346366 C96.9972051,8.77908236 96.7714709,9.99489792 96.3199958,11.0109468 C95.8685207,12.0269957 95.075557,12.8432475 93.9410811,13.4597266 L97.7612361,24.5905438 L94.0105384,24.5905438 L90.7113137,14.1789486 L88.5928641,14.1789486 L88.5928641,24.5905438 L85.0505385,24.5905438 L85.0505385,0.205492007 Z M99.7060483,0.205492007 L103.109459,0.205492007 L108.457676,14.8981707 L108.527134,14.8981707 L108.527134,0.205492007 L112.069459,0.205492007 L112.069459,24.5905438 L108.735506,24.5905438 L103.317831,9.93211378 L103.248374,9.93211378 L103.248374,24.5905438 L99.7060483,24.5905438 L99.7060483,0.205492007 Z M120.682174,7.22646871 L120.612717,7.22646871 L118.876282,16.0626245 L122.418608,16.0626245 L120.682174,7.22646871 Z M119.188837,0.205492007 L122.140775,0.205492007 L127.662636,24.5905438 L124.12031,24.5905438 L123.07845,19.3504975 L118.251163,19.3504975 L117.209302,24.5905438 L113.666977,24.5905438 L119.188837,0.205492007 Z M129.399072,0.205492007 L132.941398,0.205492007 L132.941398,21.0971796 L139.956591,21.0971796 L139.956591,24.5905438 L129.399072,24.5905438 L129.399072,0.205492007 Z" id="NRI-JOURNAL"></path>
        </g>
    </g>
</svg>